v -0.026950 0.040584 -0.204763
v 0.017964 0.154219 -0.799805
v 0.331776 0.047448 -0.107800
v 1.110702 0.480455 -0.525318
v -0.818935 0.135421 -0.117864
v 1.071781 0.364507 0.169720
v 0.185800 0.659431 -1.271657
v -0.628579 0.558605 -0.619812
v -1.025007 0.276151 0.548985
v 1.254868 1.170781 -1.072709
v 1.788700 1.110831 -0.238416
v -2.284333 1.039522 -1.272326
v -1.883010 1.384002 0.893334
v -0.574340 0.309323 1.067269
v -1.016142 1.667512 1.910108
v 0.113273 0.351188 1.294863
v -1.131781 1.546242 -1.886791
v -2.094406 1.386996 -0.319521
v 0.460784 1.835989 2.255647
v 0.818304 0.380133 0.999206
v 2.044302 2.074528 -0.316825
v 2.148551 1.731020 1.509739
v 1.484693 2.729510 -1.193444
v -2.496788 2.075575 -1.547853
v -1.151597 2.343167 -1.999463
v 1.160597 2.559212 0.485900
v -2.135159 2.374759 -0.340200
v -1.758963 2.618144 0.764666
v 1.565278 2.492145 1.537073
v -1.092574 2.927021 -1.927757
v -0.983826 2.973473 1.807536
v 0.229741 3.204834 1.301708
v 1.068127 2.939110 -0.655383
v 0.322634 3.174886 -2.037004
v 1.822798 3.402687 -0.592256
v 1.278999 3.605384 -1.277667
v -1.209053 3.692720 -1.128501
v 0.960503 3.737448 0.255883
v 0.003386 3.945918 -1.540473
v -0.727990 2.950918 1.432067
v 1.137015 3.376606 1.134893
v 1.300594 4.030298 -0.422424
v 0.522458 4.369819 -0.522140
v -0.189164 4.362793 -0.628668
v -0.448275 3.560920 -0.161596
v -0.509145 3.513799 0.509155
v 0.535357 3.513799 0.535348
v 0.612776 4.378509 0.084133
v 0.331776 4.452552 -0.107800
vt 0.100000 0.025000
vt 0.168750 0.106250
vt 0.000000 0.050000
vt 0.037500 0.200000
vt 0.331250 0.025000
vt 0.375000 0.106250
vt 0.925000 0.162500
vt 1.000000 0.050000
vt 1.000000 0.175000
vt 0.193750 0.271875
vt 0.375000 0.231250
vt 0.525000 0.156250
vt 0.075000 0.337500
vt 0.000000 0.325000
vt 0.325000 0.337500
vt 0.525000 0.375000
vt 0.625000 0.156250
vt 0.625000 0.418750
vt 0.725000 0.162500
vt 0.962500 0.350000
vt 0.212500 0.400000
vt 0.425000 0.412500
vt 0.725000 0.425000
vt 0.825000 0.181250
vt 0.000000 0.443750
vt 0.825000 0.425000
vt 0.075000 0.525000
vt 0.325000 0.475000
vt 0.212500 0.506250
vt 0.925000 0.525000
vt 1.000000 0.443750
vt 0.425000 0.575000
vt 0.525000 0.656250
vt 0.825000 0.575000
vt 0.287500 0.606250
vt 0.625000 0.587500
vt 0.725000 0.756250
vt 0.000000 0.600000
vt 0.175000 0.625000
vt 1.000000 0.600000
vt 0.000000 0.675000
vt 0.075000 0.725000
vt 0.375000 0.743750
vt 0.925000 0.725000
vt 1.000000 0.675000
vt 0.212500 0.775000
vt 0.625000 0.737500
vt 0.825000 0.737500
vt 0.000000 0.825000
vt 1.000000 0.825000
vt 0.075000 0.912500
vt 0.231250 0.900000
vt 0.359375 0.937500
vt 0.575000 0.912500
vt 0.825000 0.912500
vt 0.925000 0.912500
vt 0.000000 0.950000
vt 1.000000 0.950000
vt 0.475000 0.000000
vt 0.575000 0.000000
vt 0.675000 0.000000
vt 0.775000 0.000000
vt 0.875000 0.000000
vt 0.975000 0.000000
vt 0.025000 1.000000
vt 0.125000 1.000000
vt 0.675000 1.000000
vt 0.775000 1.000000
vt 0.875000 1.000000
vt 0.975000 1.000000
vn -0.013550 -0.999878 0.002899
vn -0.080294 -0.821802 -0.564043
vn 0.049501 -0.878170 0.475753
vn 0.549852 -0.746452 -0.374706
vn -0.690939 -0.681936 -0.239845
vn 0.564623 -0.820429 0.089755
vn 0.138310 -0.582812 -0.800714
vn -0.510392 -0.758812 -0.404553
vn -0.603320 -0.792138 0.092196
vn 0.559099 -0.346049 -0.753380
vn 0.906247 -0.393780 -0.153691
vn -0.692557 -0.667867 -0.272530
vn -0.853145 -0.343364 0.392682
vn -0.274422 -0.817866 0.505692
vn -0.493851 -0.221564 0.840815
vn 0.055025 -0.797174 0.601184
vn -0.025391 -0.347453 -0.937346
vn -0.832301 -0.491073 0.257088
vn 0.141301 -0.045228 0.988922
vn 0.406476 -0.820276 0.402326
vn 0.981903 0.153661 0.110477
vn 0.915036 -0.029633 0.402264
vn 0.825007 -0.021455 -0.564653
vn -0.863643 0.218909 -0.453993
vn -0.077364 -0.049104 -0.995788
vn 0.951781 0.305979 -0.021729
vn -0.922330 0.365947 0.123814
vn -0.789697 0.484787 0.375866
vn 0.673605 0.566424 0.474746
vn -0.413129 0.417615 -0.809229
vn -0.412427 0.698996 0.584185
vn 0.017029 0.805475 0.592334
vn 0.953337 -0.184667 0.238777
vn 0.257729 0.053377 -0.964721
vn 0.998657 0.036805 0.035646
vn 0.595355 0.486679 -0.639271
vn -0.649586 0.731437 -0.207343
vn 0.599689 0.530351 0.599200
vn -0.020356 0.751396 -0.659505
vn -0.302774 0.952330 0.036836
vn 0.461409 0.745659 0.480667
vn 0.664296 0.744224 0.069247
vn 0.119724 0.972259 -0.200842
vn -0.292978 0.927244 0.233100
vn -0.435621 0.786828 0.437147
vn -0.186316 0.964324 0.187872
vn -0.184973 0.823298 0.536576
vn 0.146611 0.817713 0.556597
vn -0.380902 0.901120 0.207068
s 1
f 1/1/1 2/2/2 3/3/3
f 3/3/3 2/2/2 4/4/4
f 2/2/2 1/5/1 5/6/5
f 6/7/6 3/8/3 4/9/4
f 2/2/2 7/10/7 4/4/4
f 5/6/5 8/11/8 2/2/2
f 2/2/2 8/11/8 7/10/7
f 5/6/5 9/12/9 8/11/8
f 4/4/4 10/13/10 11/14/11
f 4/4/4 7/10/7 10/13/10
f 8/11/8 12/15/12 7/10/7
f 8/11/8 9/12/9 13/16/13
f 9/12/9 14/17/14 13/16/13
f 13/16/13 14/17/14 15/18/15
f 14/17/14 16/19/16 15/18/15
f 6/7/6 4/9/4 11/20/11
f 7/10/7 12/15/12 17/21/17
f 8/11/8 18/22/18 12/15/12
f 8/11/8 13/16/13 18/22/18
f 16/19/16 19/23/19 15/18/15
f 16/19/16 20/24/20 19/23/19
f 6/7/6 11/20/11 20/24/20
f 11/14/11 10/13/10 21/25/21
f 7/10/7 17/21/17 10/13/10
f 19/23/19 20/24/20 22/26/22
f 20/24/20 11/20/11 22/26/22
f 10/13/10 23/27/23 21/25/21
f 10/13/10 17/21/17 23/27/23
f 12/15/12 24/28/24 17/21/17
f 17/21/17 24/28/24 25/29/25
f 12/15/12 18/22/18 24/28/24
f 11/20/11 26/30/26 22/26/22
f 11/20/11 21/31/21 26/30/26
f 17/21/17 25/29/25 23/27/23
f 18/22/18 27/32/27 24/28/24
f 18/22/18 13/16/13 27/32/27
f 27/32/27 13/16/13 28/33/28
f 13/16/13 15/18/15 28/33/28
f 19/23/19 22/26/22 29/34/29
f 22/26/22 26/30/26 29/34/29
f 25/29/25 24/28/24 30/35/30
f 24/28/24 27/32/27 30/35/30
f 28/33/28 15/18/15 31/36/31
f 15/18/15 19/23/19 31/36/31
f 31/36/31 19/23/19 32/37/32
f 19/23/19 29/34/29 32/37/32
f 21/25/21 23/27/23 33/38/33
f 23/27/23 25/29/25 34/39/34
f 25/29/25 30/35/30 34/39/34
f 21/31/21 33/40/33 26/30/26
f 33/38/33 23/27/23 35/41/35
f 35/41/35 23/27/23 36/42/36
f 23/27/23 34/39/34 36/42/36
f 30/35/30 27/32/27 37/43/37
f 29/34/29 26/30/26 38/44/38
f 33/40/33 35/45/35 26/30/26
f 26/30/26 35/45/35 38/44/38
f 36/42/36 34/39/34 39/46/39
f 34/39/34 30/35/30 39/46/39
f 27/32/27 28/33/28 37/43/37
f 28/33/28 31/36/31 40/47/40
f 31/36/31 32/37/32 40/47/40
f 29/34/29 41/48/41 32/37/32
f 29/34/29 38/44/38 41/48/41
f 35/41/35 36/42/36 42/49/42
f 30/35/30 37/43/37 39/46/39
f 35/45/35 42/50/42 38/44/38
f 42/49/42 36/42/36 43/51/43
f 36/42/36 39/46/39 43/51/43
f 39/46/39 37/43/37 44/52/44
f 44/52/44 37/43/37 45/53/45
f 37/43/37 28/33/28 45/53/45
f 45/53/45 28/33/28 46/54/46
f 28/33/28 40/47/40 46/54/46
f 40/47/40 32/37/32 46/54/46
f 32/37/32 41/48/41 47/55/47
f 41/48/41 38/44/38 47/55/47
f 47/55/47 38/44/38 48/56/48
f 38/44/38 42/50/42 48/56/48
f 43/51/43 39/46/39 44/52/44
f 42/49/42 43/51/43 49/57/49
f 42/50/42 49/58/49 48/56/48
f 5/6/5 1/59/1 9/12/9
f 9/12/9 1/60/1 14/17/14
f 14/17/14 1/61/1 16/19/16
f 16/19/16 1/62/1 20/24/20
f 20/24/20 1/63/1 6/7/6
f 6/7/6 1/64/1 3/8/3
f 49/57/49 43/51/43 45/65/45
f 43/51/43 44/52/44 45/66/45
f 46/54/46 32/37/32 45/67/45
f 32/37/32 47/55/47 45/68/45
f 47/55/47 48/56/48 45/69/45
f 48/56/48 49/58/49 45/70/45
